<svg width="30" height="22" viewBox="0 0 30 22" fill="none" xmlns="http://www.w3.org/2000/svg">
<path fill-rule="evenodd" clip-rule="evenodd" d="M23.667 5.87764C24.7524 4.357 26.804 2.72 29.597 1.35722C30.3228 1.00306 29.9954 -0.0946202 29.1941 0.00673018C23.3257 0.749032 19.5221 3.31916 17.445 7.14124C16.6725 8.56278 16.1871 10.0759 15.9287 11.6204C15.7582 12.6388 15.7132 13.4031 15.7132 14.2858C15.7132 18.2305 18.911 21.4282 22.8556 21.4282C26.8002 21.4282 29.998 18.2305 29.998 14.2858C29.998 10.3412 26.7492 7.14124 23.0159 7.14124C23.2128 6.60046 23.2601 6.44764 23.667 5.87764ZM7.95375 5.87764C9.03915 4.357 11.0907 2.72 13.8837 1.35722C14.6096 1.00306 14.2821 -0.0946202 13.4809 0.00673018C7.61251 0.749032 3.80888 3.31916 1.73179 7.14124C0.959264 8.56278 0.473907 10.0759 0.215432 11.6204C0.04501 12.6388 2.79101e-06 13.4031 2.79101e-06 14.2858C2.79101e-06 18.2305 3.19775 21.4282 7.14238 21.4282C11.087 21.4282 14.2848 18.2305 14.2848 14.2858C14.2848 10.3412 11.036 7.14124 7.30263 7.14124C7.49959 6.60046 7.54689 6.44764 7.95375 5.87764Z" fill="#16181D"/>
</svg>
